<svg xmlns="http://www.w3.org/2000/svg" xml:space="preserve" id="woman-doing-shell-painting" x="0" y="0" style="enable-background:new 0 0 600 600" version="1.1" viewBox="0 0 600 600">
  <g id="Shell_Painting_1_">
    <g id="Shell_Painting">
      <g>
        <g>
          <path d="M434.5243835,495.6139221c-0.0505371,0.025177-0.1009521,0.054657-0.1514893,0.0799255
					c-55.3833618,28.8926392-117.2376404,36.9788208-179.6693115,40.2061157
					c-53.5899506-3.8119507-110.7687225-7.7080078-164.4679565-30.2514038
					c-43.1093979-18.0918884-56.3459206-50.0261536-38.615799-93.5014343
					c5.4402657-13.3712158,12.1047516-26.9401245,21.1507034-38.0139771
					c33.3676224-40.8746948,44.3765945-87.1849976,43.6141663-139.5180511
					c-1.3086548-88.4188538,53.0849609-141.7984314,141.5459442-142.092926
					c77.7614441-0.2482758,147.2427979,29.001709,209.525238,71.4840088
					c50.5394897,34.4544983,79.3813477,80.7067261,86.6728516,129.0289764
					C567.1166382,379.1236572,511.7242126,455.2740479,434.5243835,495.6139221z" style="fill:#95c2f9"></path>
          <path d="M472.9957886,471.122467c-63.3426514,48.3979187-137.805542,60.6163025-218.2934875,64.7774963
					c-53.5899353-3.8119507-110.7687073-7.7080078-164.4680481-30.2514038
					c-43.1091957-18.0918884-56.3457184-50.0261536-38.6156006-93.5014343
					c5.4401665-13.3712158,12.1046486-26.9401245,21.1505966-38.0139771
					c10.3418732-12.6685791,18.5337067-25.8588867,24.8911591-39.5792236
					c25.2276611-1.2790527,51.2336349,8.9323425,75.3969193,18.4074707
					c50.9308319,19.9641724,103.6582184,37.3029175,158.2367401,40.9466248
					c54.5828247,3.6393738,111.6817932-7.5102844,155.6703491-40.0294495
					c24.3062439-17.9656677,43.7991943-41.7124023,67.1630249-60.8434143
					C563.6362305,356.0621948,536.4857788,422.6109009,472.9957886,471.122467z" style="fill:#fae5d0"></path>
          <g>
            <path d="M304.1502991,459.9913025H190.7196198c-0.4140625,0-0.75-0.3359375-0.75-0.75s0.3359375-0.75,0.75-0.75h113.4306793
						c0.4140625,0,0.75,0.3359375,0.75,0.75S304.5643616,459.9913025,304.1502991,459.9913025z"></path>
          </g>
          <g>
            <path d="M164.7694244,493.5596619c-0.3310547-0.25-0.3955078-0.7207031-0.1464844-1.0507813l96.183609-127.2001953
						c0.2490234-0.3310547,0.7197266-0.3955078,1.0507813-0.1464844c0.3310547,0.25,0.3955078,0.7207031,0.1464844,1.0507813
						l-96.183609,127.2001953C165.5712433,493.7429199,165.100769,493.8093567,164.7694244,493.5596619z"></path>
          </g>
          <g>
            <path d="M285.6551819,474.2832947l-86.6484528-110.0068359c-0.2568359-0.3251953-0.2001953-0.796875,0.125-1.0527344
						c0.3261719-0.2578125,0.7978516-0.2011719,1.0527344,0.125l86.6484528,110.0068359
						c0.2568359,0.3251953,0.2001953,0.796875-0.125,1.0527344
						C286.37677,474.6689758,285.9057007,474.6034851,285.6551819,474.2832947z"></path>
          </g>
          <path d="M290.4786072,357.0038757c0,7.2435303-48.9550781,14.5863037-79.2064362,14.5863037
					s-30.3434143-7.3427734-30.3434143-14.5863037s24.5235748-13.1155701,54.7749329-13.1155701
					S290.4786072,349.7603455,290.4786072,357.0038757z"></path>
          <g>
            <path d="M403.8943787,373.0602417l27.9414063-77.7237549l-11.7302246-5.8356323
						c-0.2912292,0.7727051-23.8532715,63.285553-23.91922,63.4605408
						c-24.0316162-78.5158081-18.6601868-60.9663696-19.4635315-63.5910034l-14.9236755-2.3560791
						c3.278656,13.0852051,18.869873,75.3095703,21.5083618,85.8397522l-35.3948059,99.9044189h15.0325928
						c3.2305908-8.654541,28.7193604-76.9372559,31.2930908-83.8320923l40.1345215,106.7674561
						c1.6017761-0.8009033,6.9404907-3.688446,11.5535278-6.3994751L403.8943787,373.0602417z" style="fill:#efa91d"></path>
            <path d="M390.2033997,373.0602417l27.9415283-77.7237549
						c-12.872345-6.402832-9.0706177-4.5118103-9.7949829-4.8721008
						c-0.6858215,1.7785034-22.0361938,57.144989-24.2346497,62.8461304l-21.0834351-63.9401245
						c-18.6256714-2.9396973-14.1463318-2.2327271-14.9279175-2.3560791l28.618866,84.0978394l-40.7955017,101.6463318h13.6997681
						l32.4349365-84.5936584c4.3669434,12.0932922,36.5813293,101.3037109,40.8666992,113.1711426
						c6.2672119-2.9142151,11.4910583-5.6699219,11.5956726-5.7220459L390.2033997,373.0602417z" style="fill:#e26f02"></path>
          </g>
        </g>
        <path d="M334.6397095,194.455307c0,0-21.9584961,68.5767059-42.1330261,36.2131805l4.451355-54.1998901
				l0.6395569-40.9466248C298.3579102,134.4382782,318.9869995,156.6566467,334.6397095,194.455307z" style="fill:#ff7e5c"></path>
        <g>
          <path d="M386.3405457,506.1660767c-2.5077209,4.644989-11.2591858,8.1329956-21.1002808,6.020813
					c-9.841095-2.116333-40.2355957-31.3663025-44.1905212-35.7082825
					c-3.9549255-4.3421021,2.7011108-6.0798035,2.7011108-6.0798035s50.556427,22.9641113,59.1437378,23.835083
					C391.4818726,495.1005249,388.8481445,501.5210571,386.3405457,506.1660767z" style="fill:#1c56e4"></path>
          <path d="M384.4723511,499.4047241c-1.9985046,2.4529419-6.1174927,6.0376892-14.0527344,8.2213135
					c-10.9635925,3.013855-38.5539856-25.2267761-46.3909912-33.5289001
					c-1.7503662-1.8512268-2.5918274-4.3798828-2.2972412-6.9127502l6.4625549-55.4706421l46.6939087-11.4441833
					l-11.9911499,60.4774475c16.6831665,25.8269958,17.7449341,27.4692688,21.8450012,33.8150635
					C385.7094116,496.0640564,385.604248,498.0205688,384.4723511,499.4047241z" style="fill:#ff7e5c"></path>
          <path d="M382.0531006,490.3966675c-12.0369568,1.7561646-17.2495728,4.8345337-27.954071,10.9224548
					c-1.3800354-0.9677429-2.7852478-2.0111694-4.1947937-3.1050415c3.3661499-2.011261,12.4809265-9.7392273,28.7997742-12.9967651
					L382.0531006,490.3966675z" style="fill:#0b4bf1"></path>
          <g>
            <path d="M370.6766663,508.3848572c-0.4003906-0.1074219-0.6376953-0.5195313-0.5302734-0.9189453
						c0.5826416-2.1652222-1.1573792-4.184845-2.5380859-5.7529297c-0.2744141-0.3105469-0.2441406-0.7851563,0.0664063-1.0585938
						c0.3115234-0.2734375,0.7841797-0.2441406,1.0585938,0.0664063c0.8242188,0.9345703,1.6757813,1.9013672,2.2783203,3.0693359
						c0.7099609,1.3779297,0.9179688,2.8212891,0.5839844,4.0644531
						C371.4877014,508.2568665,371.0727844,508.491272,370.6766663,508.3848572z" style="fill:#161507"></path>
          </g>
          <g>
            <path d="M375.7059631,506.1358337c-0.3066406-0.2792969-0.328125-0.7539063-0.0498047-1.0595703
						c0.0214844-0.0244141,0.0742188-0.1142578,0.0888672-0.4443359c0.0957031-2.0517578-0.8339844-4.1054688-1.6542969-5.9160156
						c-0.1708984-0.3779297-0.0029297-0.8222656,0.3740234-0.9931641c0.3779297-0.1669922,0.8212891-0.0029297,0.9931641,0.3740234
						c0.8896484,1.9658203,1.8974609,4.1923828,1.7851563,6.6044922
						C377.1776123,506.1861877,376.2832336,506.6620483,375.7059631,506.1358337z" style="fill:#161507"></path>
          </g>
          <g>
            <path d="M381.6434631,502.7325134c-0.3789063-0.1679688-0.5488281-0.6113281-0.3808594-0.9902344
						c0.6914063-1.5556641,0.2373047-3.2509766-0.0957031-4.1220703c-0.5400391-1.4169922-1.4697266-2.7070313-2.3691406-3.9541016
						c-0.2421875-0.3359375-0.1660156-0.8046875,0.1699219-1.046875c0.3378906-0.2431641,0.8056641-0.1640625,1.046875,0.1699219
						c0.9560547,1.3251953,1.9443359,2.6953125,2.5546875,4.2958984c0.7158203,1.8789063,0.7382813,3.7490234,0.0644531,5.2666016
						C382.4639587,502.7338867,382.0166931,502.8988037,381.6434631,502.7325134z" style="fill:#161507"></path>
          </g>
        </g>
        <g>
          <path d="M346.3363647,513.322876c-0.9257202,1.2160034-2.3983154,1.7755127-3.7782593,2.3688354
					c-7.5991211,3.281311-11.7160339,3.7793579-20.5111694,4.4851074
					c-3.3785706,0.2692871-7.0811157-0.5385742-10.1904602-1.8765259
					c-6.2650452-2.6798096-47.0017395-20.8334656-49.4454651-22.3792114
					c-0.8334045-0.5230713-1.1729126-0.9736328-0.9256287-1.922821c0.4627686-1.7335205,2.4108582-2.9199219,4.1653137-2.5413208
					l20.4101868-0.2314148c12.3024902,2.5075989,24.495575,5.528595,36.5456848,9.0585938
					c1.1149292,0.328186,2.3223877,0.4544373,3.4836426,0.441803c14.9580688,3.6793518,16.1495972,3.8517456,18.0204163,4.8722229
					c1.4389038,0.7825012,2.7095642,2.0026245,3.1976624,3.5636597
					C347.8005371,510.7353821,347.28302,512.0775146,346.3363647,513.322876z" style="fill:#034cf2"></path>
          <path d="M343.6393433,510.6511536c-2.4654846,1.4725647-5.2003174,2.4361267-7.9477539,3.2691345
					c-18.5291138,5.6448364-22.8656006,0.8654785-31.4167786-3.134491
					c-4.9864502-2.323761,15.1509705,7.0906067-34.8374329-16.29953c-2.3562012-1.1022949-4.4515076-1.5019836-5.8231201-3.9801941
					c-0.6226807-1.1317749-0.5554199-2.1920471-0.6184692-3.4416504
					c-0.9329834-17.7275696,2.9720764-53.5617676,5.2634888-70.9118347l52.8914185-5.170929
					c-0.3322754,2.6338501-13.4637146,61.5966492-13.7960205,64.2304077
					c-0.085907,0.7188721-0.0129395,0.9403687,0.5510864,1.3842468
					c8.3265076,6.5594177,16.4047241,13.3332825,24.4913635,20.1871948
					C334.5725098,498.6174316,348.085907,507.9963684,343.6393433,510.6511536z" style="fill:#ff7e5c"></path>
          <g>
            <path d="M321.8338928,516.8164673c-0.5378418-2.2982788-2.5951538-3.87854-4.4824219-5.250946
						c-0.3349609-0.2431641-0.4091797-0.7128906-0.1650391-1.0478516c0.2431641-0.3320313,0.7099609-0.4091797,1.0478516-0.1650391
						c2.1973267,1.5991211,4.4153442,3.3649597,5.0605469,6.1220398c0.09375,0.4033203-0.15625,0.8066406-0.5595703,0.9013672
						C322.3417969,517.4694214,321.9301147,517.2268677,321.8338928,516.8164673z" style="fill:#121203"></path>
          </g>
          <g>
            <path d="M328.7391663,515.9922485c-0.9462891-2.2695313-2.7460938-4.2060242-4.9384766-5.3144226
						c-0.3701172-0.1865234-0.5185547-0.6376953-0.3310547-1.0068359c0.1865234-0.3701172,0.6357422-0.5205078,1.0068359-0.3310547
						c2.5078125,1.2666016,4.5654297,3.4804382,5.6474609,6.0741882c0.1591797,0.3828125-0.0214844,0.8222656-0.4033203,0.9814453
						C329.3305054,516.5564575,328.8962097,516.3676147,328.7391663,515.9922485z" style="fill:#121203"></path>
          </g>
          <g>
            <path d="M334.39151,514.5440063c-1.2978516-2.4541016-3.1503906-4.6405945-5.3583984-6.3232117
						c-0.3291016-0.2509766-0.3925781-0.7216797-0.1416016-1.0517578c0.25-0.3291016,0.7216797-0.3935547,1.0517578-0.1416016
						c2.3789063,1.8134766,4.3759766,4.1708984,5.7744141,6.8153992c0.1933594,0.3662109,0.0537109,0.8203125-0.3125,1.0136719
						C335.0376892,515.0499268,334.5848389,514.909729,334.39151,514.5440063z" style="fill:#121203"></path>
          </g>
          <g>
            <path d="M339.5956116,512.5361938c-1.4082031-2.6767273-3.4345703-5.0448914-5.8603516-6.8486023
						c-0.3330078-0.2470703-0.4013672-0.7167969-0.1542969-1.0488281c0.2451172-0.3320313,0.7177734-0.4033203,1.0488281-0.1542969
						c2.6054688,1.9365234,4.78125,4.4794922,6.2939453,7.3525391c0.1923828,0.367157,0.0517578,0.820282-0.3144531,1.0136414
						C340.2474976,513.0410767,339.7910767,512.9058838,339.5956116,512.5361938z" style="fill:#121203"></path>
          </g>
          <path d="M338.8345032,501.9082031c-6.5172729,0.3659973-13.0093079,2.2341919-19.3204346,4.1106567
					c-4.6829224,1.3925781-9.5003967,2.8651733-13.472168,5.6336975c-0.9555054-0.487854-1.4269409-0.714386-4.7417603-2.2593384
					c3.3490906-3.3869934,7.5187073-5.9746094,12.0541992-7.4640503c2.6430969-0.8682251,9.8204346-2.4833679,13.9013367-3.0628967
					c2.3604126-0.332428,4.7333374-0.5175171,7.1148071-0.5596313
					C335.6116638,499.2533264,337.2440796,500.5281677,338.8345032,501.9082031z" style="fill:#0c50eb"></path>
        </g>
        <g>
          <path d="M390.3165283,351.9179688l-5.0321655,54.0736389l-50.4805908,5.7221375l-1.0770264,2.7137451
					c-53.4931946,16.2743835-84.7206268-1.1864014-84.7206268-1.1864014l14.8185272-52.7484741
					c0,0-47.9603729,8.8398132-84.2409363-28.9680176c-36.2847748-37.8078918,20.9824371-86.9042358,20.9824371-86.9042358
					l97.8266144-1.6493835l1.3169556,19.9474487c0,0,17.9067993,11.1749268,57.7048035,31.6650391
					C397.2124329,315.0735474,390.3165283,351.9179688,390.3165283,351.9179688z" style="fill:#155dfd"></path>
          <g>
            <path d="M340.1512756,348.6582947c-0.1162109-0.3974609,0.1113281-0.8144531,0.5087891-0.9306641
						c5.8066406-1.6992188,10.6669922-6.2978516,12.6855469-12.0019531c0.1376953-0.390625,0.5654297-0.5927734,0.9570313-0.4570313
						c0.390625,0.1376953,0.5947266,0.5664063,0.4570313,0.9570313c-2.1757813,6.1513672-7.4169922,11.109375-13.6777344,12.9414063
						C340.685791,349.2826233,340.2680664,349.0575867,340.1512756,348.6582947z"></path>
          </g>
          <g>
            <path d="M334.6815491,412.4541931c-0.4091797-0.0673828-0.6855469-0.4541016-0.6181641-0.8623047
						c0.1054688-0.6357422,10.4091797-63.7451172,3.7734375-79.7617188
						c-6.6005859-15.9316406-41.2207031-30.6757813-41.5693359-30.8222656
						c-0.3818359-0.1611328-0.5605469-0.6005859-0.4003906-0.9824219c0.1621094-0.3828125,0.6064453-0.5595703,0.9824219-0.4003906
						c1.4482422,0.6103516,35.5390625,15.1357422,42.3740234,31.6308594
						c6.7978516,16.4101563-3.2490234,77.9677734-3.6796875,80.5800781
						C335.4761658,412.2463989,335.0867615,412.5217285,334.6815491,412.4541931z" style="fill:#fff"></path>
          </g>
          <g>
            <path d="M263.0711975,361.1885681c-0.3564453-0.2099609-0.4755859-0.6699219-0.265625-1.0273438
						c4.3525391-7.3935547,10.5644531-13.6025391,17.9628906-17.953125
						c0.3574219-0.2109375,0.8164063-0.0908203,1.0263672,0.2666016c0.2099609,0.3564453,0.0908203,0.8164063-0.2666016,1.0263672
						c-7.1787109,4.2216797-13.2060547,10.2460938-17.4296875,17.421875
						C263.8896179,361.2779541,263.4303894,361.3988037,263.0711975,361.1885681z"></path>
          </g>
        </g>
        <path d="M293.1334839,183.9367676c-1.0643921,5.8314209-2.553833,11.7807617-6.1091003,16.5224304
				c-4.5843201,6.1181641-11.1222534,7.5666962-16.8296509,1.9902039c-2.8105469-2.7390289-4.5861511-6.3406067-6.2101746-9.9169159
				c-10.2240448-22.5307465-16.6698303-47.350296-32.3424683-66.4982681l6.9380341-5.8988113
				c8.8987427-3.1724091,17.098999-8.2801666,23.8770905-14.8606262c3.5889587-3.4836578,7.4429932-7.6785431,12.4497986-7.6111603
				c2.8399963,0.0378036,5.440155,1.49366,7.888916,2.9367752c2.4276733,1.4262695,4.8722229,2.9030762,6.8033447,4.9479294
				c4.9151611,5.284256,5.5975037,12.9281769,5.9282837,20.1703415
				C296.4236145,145.2161102,296.6257324,164.8149719,293.1334839,183.9367676z" style="fill:#ff7e5c"></path>
        <path d="M295.8894653,135.0717468c-1.6409607,0.2944946-3.3197327,0.3955688-4.977417,0.2819672
				c-7.3999939-0.494339-10.6286926-4.5106354-12.6937561-11.6966476c-1.0350952-3.6057816-1.6746521-7.5271301-0.4039917-11.057106
				l12.2772217-6.5004425c4.4683228,5.2045212,5.1204834,12.7105942,5.4360352,19.6191483
				C295.6706543,128.8322144,295.796814,131.9498749,295.8894653,135.0717468z" style="fill:#e05b41"></path>
        <path d="M301.4013977,243.6736908l-100.8350525,0.9466705l6.8664246-57.9824677l21.0329895-57.6920776
				l8.246582-1.2328415l2.747345,5.4991226c0,0,30.8782959,27.3145294,37.9382629,66.1574554
				c0,0,14.9069519-41.371582,15.7189636-62.7830963l0.9508972-2.6170044l3.5300598,1.5525208
				c0,0,25.2654724,43.8960266,3.7782593,90.5436249c-0.7026978,1.5314484-1.4600525,3.0672302-2.2678528,4.60289
				C299.3428345,231.998764,298.258728,225.8504028,301.4013977,243.6736908z" style="fill:#0c5cf7"></path>
        <g>
          <g>
            <polygon points="218.272 298.473 190.33 376.196 239.84 513.105 226.172 513.105 180.675 392.062 135.71 512.523 122.018 512.523 169.74 375.993 148.232 290.153 163.157 292.506 182.622 356.101 206.539 292.638" style="fill:#efa91d"></polygon>
            <polygon points="204.58 298.473 176.638 376.196 226.148 513.105 212.48 513.105 168.496 391.303 122.018 512.523 107.818 512.136 163.157 374.248 134.541 290.153 149.465 292.506 170.551 356.449 194.786 293.602" style="fill:#e26f02"></polygon>
          </g>
          <g>
            <polygon points="499.149 277.873 151.665 280.039 88.465 236.285 430.037 235.273" style="fill:#f2c77c"></polygon>
            <polygon points="194.255 239.354 247.086 276.107 413.232 275.134 352.5 237.888" style="fill:#fef9dd"></polygon>
            <path d="M298.115387,253.8092957v4.6660461c0,2.2089233-5.0026855,3.9970703-11.1707153,3.9970703
						c-6.1680603,0-11.1665039-1.788147-11.1665039-3.9970703v-4.6660461H298.115387z" style="fill:#0c5cf7"></path>
            <ellipse cx="286.945" cy="253.807" rx="11.169" ry="3.997" style="fill:#0c5cf7"></ellipse>
            <ellipse cx="286.945" cy="253.807" rx="8.202" ry="2.935" style="fill:#fc3d29"></ellipse>
            <path d="M268.9215393,260.7418823v4.6660767c0,2.2088928-5.0026855,3.9970398-11.1707153,3.9970398
						c-6.168045,0-11.1665039-1.788147-11.1665039-3.9970398v-4.6660767H268.9215393z" style="fill:#0c5cf7"></path>
            <ellipse cx="257.751" cy="260.74" rx="11.169" ry="3.997" style="fill:#0c5cf7"></ellipse>
            <ellipse cx="257.751" cy="260.74" rx="8.202" ry="2.935" style="fill:#efa91d"></ellipse>
            <path d="M330.7319946,260.7418823v4.6660767c0,2.2088928-5.0026855,3.9970398-11.1707458,3.9970398
						c-6.1680298,0-11.1665039-1.788147-11.1665039-3.9970398v-4.6660767H330.7319946z" style="fill:#0c5cf7"></path>
            <ellipse cx="319.562" cy="260.74" rx="11.169" ry="3.997" style="fill:#0c5cf7"></ellipse>
            <ellipse cx="319.562" cy="260.74" rx="8.202" ry="2.935" style="fill:#54dceb"></ellipse>
            <polygon points="499.807 297.609 147.907 302.434 151.664 280.038 499.151 277.872" style="fill:#efa91d"></polygon>
            <polyline points="147.905 302.434 84.572 261.961 88.465 236.285 151.664 280.038 147.907 303.051" style="fill:#d87508"></polyline>
          </g>
        </g>
        <g>
          <path d="M302.0233459,397.3350525c-1.3642578,0-2.3935547-1.7685547-2.3935547-4.1142578
					s1.0292969-4.1142578,2.3935547-4.1142578s2.3935547,1.7685547,2.3935547,4.1142578
					S303.3876038,397.3350525,302.0233459,397.3350525z M302.0233459,390.6065369
					c-0.2294922,0-0.8935547,0.8984375-0.8935547,2.6142578s0.6640625,2.6142578,0.8935547,2.6142578
					s0.8935547-0.8984375,0.8935547-2.6142578S302.2528381,390.6065369,302.0233459,390.6065369z" style="fill:#fff"></path>
        </g>
        <g>
          <path d="M267.6395569,402.0362244c0-6.0197754,4.6015625-6.0123901,4.6015625,0
					C272.2411194,408.047821,267.6395569,408.0563965,267.6395569,402.0362244z M269.9159241,399.0264587
					c-0.1865234,0.0869141-0.7763672,1.1113281-0.7763672,3.0097656c0,1.8994141,0.5898438,2.9238281,0.8251953,3.0107422
					c0.1865234-0.0869141,0.7763672-1.1113281,0.7763672-3.0107422
					C270.7411194,400.1377869,270.1512756,399.1133728,269.9159241,399.0264587z" style="fill:#fff"></path>
        </g>
        <g>
          <path d="M278.8075256,358.7442322c0-6.1975098,4.6015625-6.2146301,4.6015625,0
					C283.4090881,364.9417114,278.8075256,364.9588318,278.8075256,358.7442322z M281.0760803,355.5948181
					c-0.171875,0.0976563-0.7685547,1.1787109-0.7685547,3.1494141s0.5966797,3.0517578,0.8330078,3.1494141
					c0.171875-0.0976563,0.7685547-1.1787109,0.7685547-3.1494141S281.3124084,355.6924744,281.0760803,355.5948181z" style="fill:#fff"></path>
        </g>
        <g>
          <path d="M318.8514709,359.8731384c-3.1460571,0-3.0875549-9.3583984,0-9.3583984
					C321.9508362,350.51474,321.9782715,359.8731384,318.8514709,359.8731384z M318.8270569,352.0118103
					c-0.1962891,0.0898438-0.8115234,1.1699219-0.8115234,3.1826172c0,2.0117188,0.6152344,3.0917969,0.8603516,3.1816406
					c0.1953125-0.0908203,0.8105469-1.1708984,0.8105469-3.1816406
					C319.6864319,353.1827087,319.0711975,352.1026306,318.8270569,352.0118103z" style="fill:#fff"></path>
        </g>
        <g>
          <path d="M288.1747131,332.9180603c-1.5283203,0-2.6806641-1.8632813-2.6806641-4.3339844
					s1.1523438-4.3339844,2.6806641-4.3339844c1.5273438,0,2.6796875,1.8632813,2.6796875,4.3339844
					S289.7020569,332.9180603,288.1747131,332.9180603z M288.1747131,325.7500916
					c-0.4697266,0-1.1806641,1.1298828-1.1806641,2.8339844s0.7109375,2.8339844,1.1806641,2.8339844
					s1.1796875-1.1298828,1.1796875-2.8339844S288.6444397,325.7500916,288.1747131,325.7500916z" style="fill:#fff"></path>
        </g>
        <g>
          <path d="M238.3416901,343.8887634c0-6.6237793,5.2216797-6.6057739,5.2216797,0
					C243.5633698,350.4874878,238.3416901,350.5107422,238.3416901,343.8887634z M240.9520416,340.4327087
					c-0.3222656,0-1.1103516,1.2109375-1.1103516,3.4560547c0,2.2441406,0.7880859,3.4550781,1.1103516,3.4550781
					s1.1113281-1.2109375,1.1113281-3.4550781C242.0633698,341.6436462,241.2743073,340.4327087,240.9520416,340.4327087z" style="fill:#fff"></path>
        </g>
        <g>
          <path d="M251.5340729,317.2705994c-1.46875,0-2.5761719-1.8779297-2.5761719-4.3691406
					s1.1074219-4.3691406,2.5761719-4.3691406s2.5771484,1.8779297,2.5771484,4.3691406
					S253.0028229,317.2705994,251.5340729,317.2705994z M251.5340729,310.0323181
					c-0.3798828,0-1.0761719,1.0888672-1.0761719,2.8691406s0.6962891,2.8691406,1.0761719,2.8691406
					s1.0771484-1.0888672,1.0771484-2.8691406S251.9139557,310.0323181,251.5340729,310.0323181z" style="fill:#fff"></path>
        </g>
        <g>
          <path d="M217.4793854,325.1983337c-3.0629425,0-3.072464-8.0488281,0-8.0488281
					C220.5423431,317.1495056,220.5518646,325.1983337,217.4793854,325.1983337z M217.4793854,318.6495056
					c-0.2060547,0.015625-0.8007813,0.9082031-0.8007813,2.5244141s0.5947266,2.5087891,0.8007813,2.5244141
					c0.2060547-0.015625,0.8007813-0.9082031,0.8007813-2.5244141S217.6854401,318.6651306,217.4793854,318.6495056z" style="fill:#fff"></path>
        </g>
        <g>
          <path d="M366.6864319,396.2696228c-1.7148438,0-3.0078125-2.1367188-3.0078125-4.9707031
					s1.2929688-4.9716797,3.0078125-4.9716797s3.0078125,2.1376953,3.0078125,4.9716797
					S368.4012756,396.2696228,366.6864319,396.2696228z M366.6864319,387.82724
					c-0.6152344,0-1.5078125,1.3525391-1.5078125,3.4716797s0.8925781,3.4707031,1.5078125,3.4707031
					s1.5078125-1.3515625,1.5078125-3.4707031S367.3016663,387.82724,366.6864319,387.82724z" style="fill:#fff"></path>
        </g>
        <g>
          <path d="M354.2186584,362.8926697c-3.0632324,0-3.106842-8.4482422,0-8.4482422
					C357.2946167,354.4444275,357.3157043,362.8926697,354.2186584,362.8926697z M354.2147522,355.9444275
					c-0.1904297,0.0410156-0.8164063,0.9384766-0.8164063,2.7236328s0.6259766,2.6835938,0.8242188,2.7246094
					c0.1914063-0.0410156,0.8173828-0.9394531,0.8173828-2.7246094S354.4139709,355.9854431,354.2147522,355.9444275z" style="fill:#fff"></path>
        </g>
        <g>
          <path d="M370.9569397,336.7256775c-1.5751953,0-2.7626953-2.1474609-2.7626953-4.9941406
					s1.1875-4.9931641,2.7626953-4.9931641s2.7626953,2.1464844,2.7626953,4.9931641
					S372.532135,336.7256775,370.9569397,336.7256775z M370.9569397,328.2383728
					c-0.4453125,0-1.2626953,1.3261719-1.2626953,3.4931641c0,2.1679688,0.8173828,3.4941406,1.2626953,3.4941406
					s1.2626953-1.3261719,1.2626953-3.4941406C372.219635,329.5645447,371.4022522,328.2383728,370.9569397,328.2383728z" style="fill:#fff"></path>
        </g>
        <g>
          <path d="M248.0086823,181.6807404c-0.9024353-1.1481323-0.5195923-2.9677582-0.1865234-4.3769531
					c-0.0146484,0.0039063-0.0283203,0.0068359-0.0429688,0.0097656c-4.2797089,0.8934784-5.3779144-4.5284882-1.828125-4.5742188
					c0.7514648,0.02211,1.6178284,0.4091644,2.2763672,0.7675781c-1.1016846-5.6491089,4.2890472-7.3612518,4.359375-3.4394531
					c0.0263672,1.4550781-0.3134766,2.8955078-0.9716797,4.1787109c1.0619049,0.0986481,2.2266998,0.3717041,3.0039063,1.109375
					c0.7783203,0.7402344,1.140625,2.0859375,0.3994141,3.0585938c-0.4726563,0.6181641-1.3056641,0.9316406-2.1904297,0.8134766
					c-0.6923828-0.09375-1.2802734-0.4121094-1.7792969-0.7089844c-0.0035858,0.8200531-0.1048431,2.3999481-0.5693359,3.0908203
					C249.8827057,182.4937744,248.7259064,182.598587,248.0086823,181.6807404z M249.4354401,176.924881
					c-0.1899872,1.0166626-0.8344421,3.0829773-0.2451172,3.8310547c0.0390625,0.0507813,0.0683594,0.0722656,0.0771484,0.0761719
					C249.5350037,179.8422699,249.6499329,178.3641205,249.4354401,176.924881z M250.8387604,176.3750763
					c0.2509003,0.5410614,1.6014404,1.2862701,2.1894531,1.3662109c0.3300781,0.0458984,0.6582031-0.0537109,0.796875-0.2373047
					c0.1933594-0.2529297,0.0791016-0.7587891-0.2392578-1.0605469c-0.6378021-0.6072998-2.4688416-0.8854065-3.1416016-0.5986328
					c-0.2861328,0.1201172-0.6171875,0.0517578-0.8300781-0.1669922c-0.0785217,0.0370789-0.1596069,0.0617676-0.2548828,0.0712891
					c0.1240234,0.1474609,0.1855469,0.3369141,0.1728516,0.5283203
					C249.8545227,175.7938232,250.5894623,175.8397369,250.8387604,176.3750763z M245.4442291,174.3789825
					c-0.4379883,0.4467621,0.2493591,1.8258514,2.0302734,1.4658203c0.2814484-0.0576782,0.6801147-0.306366,1.1630859-0.3564453
					C248.0366669,175.1302338,246.001709,173.8022766,245.4442291,174.3789825z M249.5780182,172.1885529
					c0.0222778,1.0118561,0.3253479,1.7599487,0.3789063,1.9384766c1.3381805-2.1131897,1.2354584-4.5278778,0.9775391-4.6826172
					C250.6808014,169.2825928,249.5354462,170.2395325,249.5780182,172.1885529L249.5780182,172.1885529z" style="fill:#fff"></path>
        </g>
        <g>
          <path d="M297.1122131,178.7803497c0.0418091-0.5591583,0.1600952-1.0735321,0.2841797-1.6113281
					c-4.6672058,0.8757019-4.8006592-6.329361,0.3564453-3.6367188c-0.3155212-1.7993774,0.1410217-3.2181396,0.9404297-4.1113281
					c1.1820679-1.3287811,3.0914612-0.9421387,3.1308594,1.2099609c0.0224609,1.2646484-0.2626953,2.5175781-0.8183594,3.6425781
					c0.9486084,0.1088562,1.9121704,0.3457794,2.5976563,0.9960938c0.71875,0.6826172,1.0507813,1.9277344,0.3642578,2.8291016
					c-0.4404297,0.5742188-1.2119141,0.8701172-2.0244141,0.7548828c-0.5517578-0.0742188-1.0410156-0.3095703-1.4882813-0.5683594
					c-0.0142517,0.7284393-0.1115417,2.0481262-0.5185547,2.6503906
					C299.0796814,182.2058563,296.8939514,181.7504578,297.1122131,178.7803497z M298.9178772,177.2412872
					c-0.1568909,0.6916504-0.5342102,2.1430664-0.1826172,2.7578125
					C298.8503113,179.7089233,299.0342407,178.494278,298.9178772,177.2412872z M299.8905334,175.8330841
					c0.1591797,0.0712891,0.2929688,0.1982422,0.3710938,0.3671875c0.2382813,0.511734,2.0441284,1.6048737,2.5136719,0.9873047
					c0.1416016-0.1855469,0.0400391-0.5976563-0.2050781-0.8300781
					C302.0296631,175.8444061,300.4593201,175.6074524,299.8905334,175.8330841z M299.0135803,175.737381
					c0.0371094,0.0654297,0.0644531,0.1367188,0.0800781,0.2099609c0.0517578-0.0449219,0.1103516-0.0830078,0.1748047-0.1123047
					c-0.0673828-0.0302734-0.1308594-0.0703125-0.1875-0.1201172
					C299.0371399,175.7310638,299.0421448,175.728241,299.0135803,175.737381z M295.7792053,174.4209747
					c-1.0034485,0-0.1324463,1.8754425,1.7148438,1.1533203c0.1542969-0.0605469,0.3212891-0.1269531,0.5019531-0.1699219
					c-0.3791504-0.2240448-1.5521545-0.9658051-2.1943359-0.9824219
					C295.7948303,174.4209747,295.7870178,174.4209747,295.7792053,174.4209747z M300.2254944,170.1465607
					c-0.3115234,0.0070801-1.1080322,0.8596039-1.0751953,2.3691406c0.0181274,0.1019135-0.0222168,0.6257324,0.2763672,1.5214844
					c0.5966797-1.0146484,0.9189453-2.2089844,0.8974609-3.3789063
					C300.3163147,170.2481232,300.2264709,170.1475372,300.2254944,170.1465607z" style="fill:#fff"></path>
        </g>
        <g>
          <path d="M294.8241272,209.7168732c-0.3671875-0.0488281-0.7128906-0.2578125-0.9736328-0.5908203
					c-0.830719-1.058075-0.466095-2.616745-0.2109375-3.8339844c-2.8921814,0.5471649-4.382843-2.2937012-3.0175781-3.6953125
					c0.3574219-0.3671875,0.9121094-0.546875,1.4658203-0.5527344c0.6335754,0.0188751,1.3467407,0.317215,1.9082031,0.6103516
					c-0.0615234-0.3525391-0.0947266-0.6728516-0.1015625-0.9824219l0,0
					c-0.0660095-2.8787689,1.9952087-4.4997559,3.3505859-3.6855469c1.434845,0.86409,0.7401123,3.9208984,0.0039063,5.4101563
					c0.9382935,0.0999908,1.9194641,0.3507385,2.5976563,0.9951172c0.71875,0.6826172,1.0507813,1.9277344,0.3642578,2.8291016
					c-0.4375,0.5742188-1.2167969,0.8671875-2.0234375,0.7548828c-0.5527344-0.0742188-1.0410156-0.3085938-1.4882813-0.5673828
					c-0.0141907,0.7258453-0.111145,2.0464935-0.5185547,2.6484375
					C295.8963928,209.4756622,295.3103638,209.7799072,294.8241272,209.7168732z M295.1620178,205.3614044
					c-0.152832,0.6807709-0.5365601,2.1455536-0.1826172,2.7607422
					C295.0921936,207.842926,295.2782898,206.6163635,295.1620178,205.3614044z M296.1327209,203.9551544
					c0.1601563,0.0722656,0.2949219,0.1992188,0.3740234,0.3691406c0.2342224,0.506897,2.0448914,1.6017761,2.5107422,0.9863281
					c0.1425781-0.1865234,0.0410156-0.5986328-0.2041016-0.8310547
					C298.2625122,203.9552307,296.6869202,203.7359009,296.1327209,203.9551544z M295.2567444,203.8594513
					c0.0371094,0.0664063,0.0644531,0.1376953,0.0810547,0.2109375c0.0517578-0.0449219,0.1103516-0.0830078,0.1748047-0.1123047
					c-0.0673828-0.0302734-0.1308594-0.0703125-0.1884766-0.1210938
					C295.3055725,203.8438263,295.2736511,203.8540344,295.2567444,203.8594513z M292.0252991,202.543045
					c-0.140625,0-0.2685547,0.0390625-0.3291016,0.1005859c-0.2523499,0.2597656,0.0627747,1.0263367,0.8789063,1.1845703
					c0.7910156,0.1575928,1.0896606-0.1649017,1.6650391-0.3017578c-0.3639526-0.2123108-1.5445862-0.9654694-2.1943359-0.9824219
					C292.0389709,202.543045,292.032135,202.543045,292.0252991,202.543045z M296.4686584,198.268631
					c-0.0419922,0.0009766-0.2441406,0.0849609-0.4130859,0.2744141c-0.8275452,0.9235077-0.7850647,2.4525146-0.3857422,3.6171875
					c0.5976563-1.015625,0.9199219-2.2099609,0.8974609-3.3798828
					C296.5594788,198.3701935,296.469635,198.2696075,296.4686584,198.268631z" style="fill:#fff"></path>
        </g>
        <g>
          <path d="M234.6268463,203.9463654c-0.8012238-1.0209503-0.5011597-2.5760651-0.2119141-3.8349609
					c-3.8187256,0.7228851-4.8275604-4.1680603-1.5488281-4.2470703c0.6294098,0.0187836,1.3452759,0.3174591,1.90625,0.6103516
					c-0.8677216-4.9997406,4.006134-6.4659576,4.0712891-2.9023438c0.0224609,1.2646484-0.2626953,2.5175781-0.8183594,3.6435547
					c0.9318848,0.1001282,1.918457,0.3508453,2.5976563,0.9960938c0.71875,0.6826172,1.0507813,1.9277344,0.3642578,2.8291016
					c-0.4394531,0.5751953-1.2216797,0.8642578-2.0244141,0.7539063c-0.5507813-0.0722656-1.0400391-0.3076172-1.4882813-0.5673828
					c-0.0128937,0.7273254-0.1123352,2.0469971-0.5175781,2.6484375
					C236.6318665,204.3585815,235.3156891,204.8221436,234.6268463,203.9463654z M235.9373932,200.18367
					c-0.1467285,0.6469574-0.5378265,2.1355591-0.1826172,2.7587891
					C235.868454,202.6582947,236.0534363,201.4360504,235.9373932,200.18367z M236.9100494,198.7754669
					c0.1591797,0.0712891,0.2929688,0.1982422,0.3710938,0.3671875c0.2346039,0.5037994,2.0388947,1.6088409,2.5136719,0.9873047
					c0.1416016-0.1855469,0.0400391-0.5976563-0.2050781-0.8300781
					C239.0467072,198.7830505,237.4723663,198.5502319,236.9100494,198.7754669z M236.0330963,198.6797638
					c0.0371094,0.0654297,0.0644531,0.1357422,0.0800781,0.2099609c0.0527344-0.0449219,0.1103516-0.0830078,0.1748047-0.1123047
					c-0.0673828-0.0302734-0.1308594-0.0703125-0.1875-0.1201172
					C236.0571899,198.6732483,236.062027,198.670517,236.0330963,198.6797638z M232.4002838,197.8203888
					c0.0644531,0.3789063,0.4726563,0.734375,0.9492188,0.8271484c0.7405548,0.1469727,1.1872406-0.1869049,1.6660156-0.3007813
					c-0.4843597-0.2948303-0.9822388-0.5960693-1.4882813-0.796875
					C232.9443207,197.3197784,232.2974854,197.2078705,232.4002838,197.8203888z M235.1131744,197.7871857h0.0107422H235.1131744z
					 M236.1698151,195.4580841c0.0095825,0.4252319,0.1001892,1.0328522,0.2773438,1.5234375
					c0.6035156-1.0175781,0.9179688-2.1923828,0.8964844-3.3818359c-0.0078125-0.4082031-0.0976563-0.5097656-0.0986328-0.5107422
					C236.9365082,193.0959625,236.1369324,193.9435272,236.1698151,195.4580841z" style="fill:#fff"></path>
        </g>
        <path d="M326.3850098,248.0914764c-5.717926,0.0714874-15.4664917-2.4192657-20.3260803-5.4234161
				c-1.9985046-1.236969-4.5224304-4.5029907-6.0791626-7.061142l-0.8714905-4.9384308
				c0.8078003-1.5356598,1.565155-3.0714417,2.2678528-4.60289c1.3294983-0.2061615,2.9620361,0.3408203,4.670166,0.1472931
				c8.4828491-0.9787445,18.8369751,7.8906555,18.6599426,19.3836212L326.3850098,248.0914764z" style="fill:#ff7e5c"></path>
        <path d="M388.657135,158.4085999c-0.9933777,4.7025757-8.4621277,9.7855682-12.5027161,13.2363892
				c-7.5102234,6.4140472-7.6195068,9.9182129-9.6931458,16.6528473
				c-5.3435059,17.3542786-11.2821045,34.7485504-21.0333252,50.0664368
				c-1.4026794,2.2034302-2.9073486,4.3879852-4.9049988,6.0708466c-4.8788147,4.1100159-12.0116882,4.5677032-18.1679993,2.8959351
				c-6.9087524-1.8760986-10.1440735-5.9426727-10.5993042-13.0084991
				c-1.0514221-16.3205109,6.053833-32.5094147,17.0773621-44.5902252
				c5.0586243-5.543808,10.9954224-10.3195343,15.5572205-16.3117981
				c8.4766541-11.1346436,10.1454163-28.4563141,21.7379761-38.313736c2.0465393-1.7402039,4.4198914-3.2016296,7.0622559-3.6860046
				c2.642334-0.4843903,5.5838623,0.1376343,7.4620667,2.0582886c0.950592,0.9720459,1.5812378,2.2075958,2.1369324,3.4484406
				c1.8360596,4.0996552,3.032959,8.4732056,5.1183472,15.470932
				C388.493103,154.3625641,389.0784607,156.4142303,388.657135,158.4085999z" style="fill:#ff7e5c"></path>
        <g>
          <path d="M370.0201111,151.0683594c-0.3093262,0.680481-0.8146057,2.6262207-1.5315552,2.2677612v0.0084229
					l0.1346741,0.0926514c-7.1445618,3.4466858-15.8244324,1.6425781-20.9865417-4.5398254
					c-1.1696777-1.4053192-2.1289978-3.025116-2.503418-4.8091583c-0.4518127-2.1822205,0.0769958-4.5410614,1.0687256-6.0165253
					l0.1850891,0.1261444c-1.5276184-3.8190918-0.5221558-7.2445526,1.5398865-9.0500641
					c1.7611694-1.5487137,4.343689-1.7685242,5.9871521-0.8078918c0.0168457-1.8133163,0.2819519-3.681488,1.211792-5.242424
					c0.9298096-1.5651474,2.6380615-2.7643051,4.4597778-2.6843872c2.2973633,0.1010742,4.0307617,2.0616989,5.3855286,3.9255524
					v0.0042114c3.0085754-2.7698669,6.3482361-1.448555,8.1623535,2.162674
					C376.6499023,133.5377045,373.2172546,143.9334412,370.0201111,151.0683594z" style="fill:#fef9dd"></path>
          <path d="M354.330658,147.4836273c-4.3073425-3.5248108-5.2091064-4.683548-7.148407-7.7289734
					c-0.3450317-0.5427704-0.6899719-1.0855408-1.0013123-1.6493683c0.0083008-0.0126343,0.0126343-0.0210724,0.0210571-0.0335999
					l0.1850891,0.1261444c-1.5276184-3.8190918-0.5221558-7.2445526,1.5398865-9.0500641
					c1.5693665-1.380043,3.9717712-1.8260498,5.827301-0.8920135
					C351.8904114,134.5079193,352.0923767,141.3533936,354.330658,147.4836273z" style="fill:#fc3d29"></path>
          <g>
            <g>
              <path d="M368.5184631,154.1270294c-0.9762268-0.1281738-1.6213684-1.7329407-2.0585938-2.4384766
							c-2.882843-4.6524048-3.9987183-10.2566071-4.8466797-15.6445313
							c-0.2939453-1.8662109-0.5253906-3.5537109-0.3720703-5.2900391c0.4037781-4.5838165,3.677948-9.038353,7.5996094-8.6210938
							c1.9716797,0.2050781,3.7802734,1.6757813,4.9619141,4.0351563c1.5166016,3.0273438,1.9277344,6.7246094,1.2587891,11.3017578
							c-1.0249634,7.0162354-3.9992065,12.9198456-4.5068359,14.2929688
							C370.1676025,152.8175507,369.633728,154.2743378,368.5184631,154.1270294z M368.8553772,152.6856232h0.0097656H368.8553772z
							 M364.1590881,126.5137482c-1.9013367,3.161087-1.5687561,5.8973389-1.0634766,9.2978516
							c0.8092651,5.1537781,1.8782349,10.6317749,4.6396484,15.0869141c0.1925049,0.317276,0.5546875,1.0632172,0.9042969,1.546875
							c0.1953125-0.3486328,0.4111328-0.9375,0.5068359-1.1992188c0.6136475-1.6633148,3.4383545-7.2009277,4.4306641-13.9931641
							c0.6230469-4.2636719,0.2587891-7.6699219-1.1162109-10.4130859
							c-0.9335938-1.8642578-2.3447266-3.0664063-3.7744141-3.2148438
							C366.8407593,123.4290771,365.1112366,124.9316788,364.1590881,126.5137482z"></path>
            </g>
            <g>
              <path d="M368.0819397,153.9824982c-4.5800781-2.9570313-8.5439453-7.6132813-11.7832031-13.8398438
							c-1.9681396-3.7772675-3.1733398-7.2500916-3.1367188-11.7832031
							c0.0185547-2.3369141,0.4501953-4.1835938,1.3183594-5.6435547c1.1523438-1.9394531,3.1767578-3.140625,5.1367188-3.0517578
							c2.6386719,0.1162109,4.5712891,2.3242188,5.9589844,4.2333984c0.2441406,0.3359375,0.1699219,0.8046875-0.1650391,1.0478516
							c-0.3388672,0.2441406-0.8056641,0.1669922-1.0478516-0.1650391
							c-1.2646484-1.7402344-2.8251953-3.5302734-4.8115234-3.6181641
							c-1.3984375-0.0615234-2.9072266,0.8486328-3.7822266,2.3203125
							c-1.8057251,3.0377426-1.1378479,8.4533691,0.0263672,11.8339844
							c0.4277344,1.2402344,1.0107422,2.5537109,1.8330078,4.1337891
							c3.1181641,5.9921875,6.9082031,10.4580078,11.2675781,13.2724609
							c0.3476563,0.2246094,0.4472656,0.6884766,0.2226563,1.0371094
							C368.8951721,154.1055298,368.4326782,154.2081757,368.0819397,153.9824982z"></path>
            </g>
            <g>
              <path d="M361.3006897,153.0625763c-5.4230957-2.8514557-11.8725281-8.6455841-14.0068359-11.6708984
							c-3.5992432-5.0918884-2.8153381-10.2185669,0.1386719-12.8085938
							c1.9199219-1.6865234,4.8164063-2.0546875,6.8857422-0.8779297c0.3603516,0.2050781,0.4863281,0.6621094,0.2822266,1.0224609
							s-0.6621094,0.4892578-1.0224609,0.2822266c-1.5351563-0.8710938-3.7011719-0.5742188-5.1572266,0.7001953
							c-1.3691406,1.2021484-2.125,3.1572266-2.0205078,5.2304688c0.2087402,4.1859283,3.3430176,7.3981781,6.4453125,10.1523438
							c2.3486328,2.0859375,5.5117188,4.7265625,9.1523438,6.6416016c2.4521484,1.2880859,4.4042969,1.5263672,6.3242188,0.7822266
							c0.390625-0.1474609,0.8212891,0.0429688,0.9707031,0.4277344c0.1494141,0.3867188-0.0419922,0.8212891-0.4277344,0.9707031
							C366.2721252,154.9205017,363.7949219,154.3731232,361.3006897,153.0625763z"></path>
            </g>
            <g>
              <path d="M345.5643616,137.6739044c0.2177734-0.3515625,0.6796875-0.4628906,1.0322266-0.2412109
							c0.3525391,0.21875,0.4599609,0.6806641,0.2412109,1.0322266c-1.6966248,2.7324371-1.6824341,6.2881927,1.3740234,9.9501953
							c4.8909302,5.8651123,13.1795044,7.6821289,20.0869141,4.3476563
							c0.3769531-0.1826172,0.8212891-0.0214844,1.0019531,0.3496094c0.1796875,0.3730469,0.0234375,0.8222656-0.3496094,1.0019531
							C354.997467,160.8433533,339.5553284,147.3399506,345.5643616,137.6739044z"></path>
            </g>
          </g>
        </g>
        <path d="M391.4659119,154.9095612c-0.1115417,3.1113586-1.8452148,5.2147064-3.9310913,7.4610138
				c-1.2904968,1.3917542-2.6578064,2.7102661-4.0949402,3.9485626c-1.6149597,0.1639252-3.2648315,0.1011658-4.8693848-0.1325836
				c-1.1685486-0.1708374-2.4067688-0.4743347-3.1847534-1.3638306c-0.7848511-0.8998718-0.9103699-2.2323456-0.6208191-3.3904266
				c0.2929382-1.1580658,0.9452515-2.1905365,1.5906067-3.1950684c-0.9522705,0.2754974-1.921875,0.5545502-2.9160156,0.5615387
				c-4.7603149,0.0503235-4.1020508-5.7453613-1.9324341-7.8377533c-1.4022217,0.3313446-2.9091797-0.5615387-3.5613403-1.8452301
				c-0.6523132-1.2870941-0.5617065-2.853241-0.0594482-4.2030945c0.4988708-1.3534241,1.3709106-2.5324554,2.2638855-3.6660919
				c-1.3184509,0.5163269-2.9195862-0.1394806-3.7008362-1.3184204c-0.8731384-1.3213196-0.9755859-3.4031067,0.3208618-5.4065552
				c1.9312744-1.615036,5.8718872-4.5513916,8.2702942-5.2670746c3.9450684-1.1755371,8.2598877,1.1510925,10.6700439,4.4892273
				c2.4103394,3.3345642,3.3382263,7.4854584,4.2102661,11.5107422
				C390.6184082,148.4705353,391.5880432,151.5818939,391.4659119,154.9095612z" style="fill:#ff7e5c"></path>
        <g>
          <path d="M378.4618225,166.9287872c-1.1904297-0.1738281-2.6806641-0.5146484-3.640625-1.6123047
					c-1.0596313-1.2143707-1.4320374-3.3056946-0.0507813-5.9033203c-4.0843811,0.7594452-6.3765259-1.8358154-5.4765625-5.7490234
					c0.1748047-0.7519531,0.4238281-1.4189453,0.7441406-1.9951172c-3.0084534-0.7424164-4.8665466-4.7019958-1.484375-9.5458984
					c-3.1300964-0.5269318-4.7330017-4.4234772-2.4130859-8.0087891c0.2246094-0.3466797,0.6884766-0.4472656,1.0371094-0.2226563
					c0.3476563,0.2255859,0.4472656,0.6894531,0.2226563,1.0371094c-1.1231079,1.7329254-1.0386047,3.5058899-0.3251953,4.5859375
					c0.6171875,0.9316406,1.8710938,1.3964844,2.8017578,1.0332031c0.7106323-0.2772064,1.3343506,0.5649261,0.8623047,1.1621094
					c-0.8291016,1.0527344-1.6787109,2.1875-2.1484375,3.4628906c-0.4863281,1.3027344-0.4765625,2.6152344,0.0244141,3.6035156
					c0.5322266,1.0498047,1.7246094,1.6816406,2.7197266,1.4550781c0.7409058-0.1708069,1.2390442,0.7404327,0.6923828,1.2695313
					c-1.6596375,1.6019135-2.6229248,6.5478516,1.359375,6.5478516c0.9284668,0,1.8543091-0.269989,2.7607422-0.5322266
					c0.6604614-0.1911926,1.2139282,0.5427856,0.8388672,1.1259766c-0.5732422,0.8925781-1.2236328,1.9033203-1.4941406,2.9736328
					c-0.2050781,0.8212891-0.1933594,1.9667969,0.4589844,2.7128906c0.6328125,0.7236328,1.734375,0.9697266,2.7275391,1.1152344
					c1.6259766,0.2373047,3.2041016,0.2802734,4.6855469,0.1289063c0.4238281-0.0488281,0.7802734,0.2587891,0.8222656,0.6699219
					c0.0419922,0.4121094-0.2578125,0.7802734-0.6699219,0.8222656
					C381.840332,167.2349548,380.1359558,167.1730042,378.4618225,166.9287872z"></path>
        </g>
        <g>
          <path d="M369.4979553,141.7696075c-0.2626953-0.3203125-0.2177734-0.7929688,0.1015625-1.0566406
					c3.7011719-3.0507813,8.1816406-4.7382813,12.5146484-6.3701172c0.3857422-0.1435547,0.8212891,0.0507813,0.9667969,0.4375
					c0.1455078,0.3876953-0.0498047,0.8203125-0.4375,0.9667969c-4.21875,1.5888672-8.5810547,3.2314453-12.0888672,6.1240234
					C370.2329407,142.1347351,369.7607727,142.0877838,369.4979553,141.7696075z"></path>
        </g>
        <g>
          <path d="M370.9686584,151.2227325c-0.2382813-0.3388672-0.1572266-0.8066406,0.1816406-1.0449219
					c4.2216797-2.9726563,8.7412109-5.5634766,13.4326172-7.7001953c0.3740234-0.1679688,0.8212891-0.0058594,0.9931641,0.3720703
					c0.171875,0.3769531,0.0048828,0.8212891-0.3720703,0.9931641c-4.6064453,2.0986328-9.0449219,4.6425781-13.1904297,7.5615234
					C371.6822815,151.6392517,371.2110291,151.5669098,370.9686584,151.2227325z"></path>
        </g>
        <g>
          <path d="M375.3368225,158.8662872c-0.2177734-0.3515625-0.1083984-0.8144531,0.2441406-1.03125l10.7128906-6.6152344
					c0.3525391-0.2167969,0.8134766-0.1074219,1.0322266,0.2451172c0.2167969,0.3525391,0.1074219,0.8144531-0.2451172,1.0322266
					l-10.7128906,6.6132813C376.0232544,159.325592,375.5569763,159.2246094,375.3368225,158.8662872z"></path>
        </g>
        <g>
          <path d="M311.8172913,237.3506622c-3.2383423-14.75737,1.3196716-33.4212189,18.7998047-50.5263672
					c0.2949219-0.2880859,0.7714844-0.2851563,1.0605469,0.0117188c0.2900391,0.2958984,0.2841797,0.7705078-0.0117188,1.0605469
					c-17.1461487,16.7754974-21.4948425,34.9581909-18.3837891,49.1318359
					c0.0888672,0.4052734-0.1669922,0.8046875-0.5712891,0.8935547
					C312.2952881,238.0110016,311.9047546,237.7470093,311.8172913,237.3506622z"></path>
        </g>
        <g>
          <path d="M395.1942444,248.2577972c0.0174561-1.5627899-1.0575867-2.9925537-2.4264526-3.7471313
					c-1.3620605-0.7509918-2.9690247-0.9278717-4.5246277-0.8916168c0.840271-1.6349945,0.3979492-3.7638702-0.8597412-5.1069336
					c-1.5942383-1.7020111-4.5513916-2.4942627-7.7987366-1.0667572l0.1035461-0.1618805
					c-2.6279602-1.5170593-5.9750671-1.3739471-9.2376404,1.5329895
					c-5.1149292,4.5571747-6.4824524,12.0415497-3.3045044,18.1144104l0.076416-0.1194763l0.0078125-0.0012207
					c-0.3045349,0.6140747,1.4657593,1.0356445,1.9858093,1.2487488c3.8057556,1.5594177,7.765625,2.8381653,11.8678589,3.3010254
					c10.0974426,1.1391602,14.7484131-4.4398804,10.8953247-8.377243l0.0022583-0.000412
					C393.5392151,251.7705231,395.1724854,250.2312469,395.1942444,248.2577972z" style="fill:#54dceb"></path>
          <g>
            <g>
              <path d="M380.9999084,262.1045837c-6.0603638-0.6829224-11.2342224-3.0805054-12.4013672-3.4667969
							c-0.9501953-0.3144531-2.2509766-0.7441406-2.1503906-1.7890625c0.0859375-0.8993225,1.4223022-1.4701843,2.078125-1.9111481
							c4.2085876-2.8065338,8.8997498-3.6710052,13.3095703-4.6083984c3.3468628-0.6399384,5.9322205-0.8741608,8.9375,0.8027344
							C397.5740356,254.9303741,393.6747437,263.5411377,380.9999084,262.1045837z M368.2059631,256.8955994
							c0.5496826,0.2426758,0.9386902,0.3230286,1.2949219,0.4697266
							c5.9757385,2.4475403,14.8186035,5.0921021,20.4970703,2.0136719
							c1.5380859-0.8349609,2.5078125-2.0458984,2.5927734-3.2392578c0.1142578-1.6152496-1.3007813-3.0019684-2.5478516-3.6972809
							c-2.6646729-1.4884796-4.97229-1.2036591-7.9257813-0.640625l0,0
							c-2.2773438,0.4355469-4.7080078,0.9443359-7.0449219,1.7099609c-3.5549622,1.1628723-5.006897,2.2729645-6.0585938,2.8818512
							C368.8544006,256.4864197,368.4842834,256.7012634,368.2059631,256.8955994z"></path>
            </g>
            <g>
              <path d="M366.8309631,257.4561462c-0.3554688-0.2138672-0.4707031-0.6738281-0.2578125-1.0292969
							c2.4150391-4.0234528,6.3066406-7.5644684,11.5683594-10.5254059
							c3.1885071-1.7952271,6.1359558-2.9342041,10.0605469-3.0322266c2.0351563-0.0517578,3.6367188,0.2734375,4.9277344,0.9853516
							c1.7294922,0.953125,2.8339844,2.6845703,2.8144531,4.4121094c-0.0253906,2.3085938-1.8847656,4.0498047-3.5019531,5.3076172
							c-0.3300781,0.2548828-0.8007813,0.1943359-1.0527344-0.1308594
							c-0.2548828-0.3271484-0.1953125-0.7988281,0.1308594-1.0527344c1.4355469-1.1171875,2.90625-2.4824219,2.9238281-4.140625
							c0.0136719-1.1826172-0.7871094-2.3925781-2.0390625-3.0820313c-1.0507813-0.5800781-2.4150391-0.8417969-4.1660156-0.7988281
							c-3.607666,0.088974-6.3574829,1.1469879-9.3613281,2.8388672c-5.0322266,2.8320313-8.7392578,6.1933594-11.0175781,9.9902496
							C367.6481018,257.5519104,367.1879272,257.6691589,366.8309631,257.4561462z"></path>
            </g>
            <g>
              <path d="M366.6454163,257.1914978c-0.8525391-2.0058746-0.6875-4.1015778,0.5214844-6.5947418
							c2.3015442-4.7473602,7.0937195-10.443161,9.640625-12.3691406c4.3112793-3.2642212,8.78125-2.7288971,11.1230469-0.2285156
							c1.5273438,1.6308594,1.9316406,4.1533203,0.9628906,5.9990234c-0.1914063,0.3671875-0.6435547,0.5097656-1.0126953,0.3154297
							c-0.3671875-0.1923828-0.5078125-0.6455078-0.3154297-1.0126953c0.6816406-1.2988281,0.375-3.0966797-0.7294922-4.2763672
							c-1.8016663-1.9245605-5.4210815-2.4019928-9.1240234,0.3984375
							c-2.3833923,1.8044891-7.0177612,7.3385773-9.1953125,11.828125
							c-1.0195313,2.1035156-1.1708984,3.7539063-0.4902344,5.3525543c0.1621094,0.3818359-0.015625,0.8222656-0.3964844,0.984375
							C367.2414551,257.7504272,366.8065491,257.5679016,366.6454163,257.1914978z"></path>
            </g>
            <g>
              <path d="M366.4823303,257.2784119c-6.2711792-11.9781036,5.1569519-25.5123291,13.5810547-20.6445465
							c0.3583984,0.2070313,0.4814453,0.6660156,0.2744141,1.0244141c-0.2060547,0.3583984-0.6640625,0.4833984-1.0244141,0.2744141
							c-2.3500671-1.3544617-5.3380127-1.2511139-8.3632813,1.4433594
							c-4.8618469,4.3317108-6.1602783,11.4341431-3.1396484,17.2070465
							c0.1923828,0.3671875,0.0507813,0.8203125-0.3164063,1.0117188
							C367.1366272,257.7845764,366.6775208,257.6517029,366.4823303,257.2784119z"></path>
            </g>
          </g>
        </g>
        <g>
          <path d="M121.9242096,242.9290314c-0.0193176-1.7288055,1.1699677-3.3104706,2.6842346-4.1452179
					c1.5067749-0.8307648,3.2844543-1.0264435,5.0053101-0.9863281c-0.9295197-1.8087006-0.4402161-4.1637421,0.9511108-5.6494904
					c1.7635956-1.8828278,5.0348969-2.7592621,8.627243-1.1800842l-0.1145325-0.1790924
					c8.6961212-5.0200958,20.3518524,9.3571472,13.874588,21.7347107l-0.0845337-0.1321564l-0.0086365-0.001358
					c0.3368835,0.6793213-1.6214752,1.1456909-2.1967621,1.3814392c-6.8899994,2.8231201-16.8417358,5.7381592-23.3847733,2.1891327
					c-3.3976669-1.8430023-4.4923248-5.0501251-1.7967606-7.804657l-0.0025024-0.0004578
					C123.7550659,246.8149414,121.9482956,245.1121521,121.9242096,242.9290314z" style="fill:#c52207"></path>
          <g>
            <g>
              <path d="M126.9198227,256.6192322c-2.2119141-1.199234-3.5576172-2.9697418-3.6914063-4.8593903
							c-0.2679443-3.7834167,4.0555878-6.7364807,8.4453049-6.9785156c1.7819366-0.1014557,3.4093475,0.2263031,5.0136719,0.5175781
							c9.1152802,1.7426758,11.3323212,3.1295624,14.9941406,5.265625c1.0703125,0.6230469,1.8945313,1.15625,1.9638672,1.875
							c0.1256409,1.3028259-1.8798218,1.678299-2.6982422,2.0263672
							C143.7809906,257.4004822,133.7015533,260.2986145,126.9198227,256.6192322z M127.5838852,247.4883575
							c-1.3994141,0.78125-2.9882813,2.3408203-2.859375,4.1660156c0.0957031,1.3466797,1.1835938,2.7099609,2.9101563,3.6464844
							c2.5527267,1.3838043,5.7636642,1.8359528,9.8144455,1.3769684
							c6.4995422-0.7328644,12.0659637-3.3296356,13.4003906-3.7656403c0.2353516-0.078125,0.7519531-0.2480469,1.0869141-0.4121094
							c-0.4647064-0.3471069-1.1286926-0.6958771-1.3857422-0.8662109
							c-4.1252899-2.7486877-9.2715454-3.9296265-14.1445313-4.8623047
							C133.1286926,246.1460266,130.5502319,245.8322906,127.5838852,247.4883575z"></path>
            </g>
            <g>
              <path d="M152.2303619,252.7783966c-2.5283203-4.2128906-6.6386719-7.9414063-12.2177734-11.0800781
							c-3.3079987-1.8599396-6.3384399-3.0515137-10.3925781-3.1503906
							c-1.9560471-0.0537109-3.4726486,0.2431641-4.6494064,0.8925781c-1.4101563,0.7773438-2.3115234,2.1425781-2.296875,3.4804688
							c0.0205078,1.8691406,1.6621094,3.3955078,3.265625,4.6425781c0.3261719,0.2539063,0.3857422,0.7255859,0.1308594,1.0527344
							c-0.2539063,0.3251953-0.7226563,0.3857422-1.0527344,0.1308594c-1.7744141-1.3808594-3.8154297-3.2890625-3.84375-5.8095703
							c-0.0205078-1.8828125,1.1855469-3.7705078,3.0722656-4.8105469c1.4169922-0.78125,3.1738281-1.1347656,5.4111252-1.0791016
							c4.251236,0.1049957,7.5313568,1.3401489,11.0917969,3.34375c5.8085938,3.2675781,10.1044922,7.1757813,12.7685547,11.6152344
							c0.2128906,0.3554688,0.0976563,0.8154297-0.2578125,1.0292969
							C152.90271,253.2492371,152.4425354,253.132019,152.2303619,252.7783966z"></path>
            </g>
            <g>
              <path d="M152.4481354,253.1778107c-0.3808594-0.1621094-0.5585938-0.6025391-0.3964844-0.984375
							c0.7617188-1.7910156,0.5947266-3.6376953-0.5439453-5.9873047
							c-2.4087067-4.9682159-7.5376587-11.1015167-10.1962891-13.1142578
							c-4.1010284-3.1024017-8.161377-2.6075745-10.1982422-0.4316406
							c-1.2451172,1.3291016-1.5898438,3.3574219-0.8193359,4.8222656c0.1923828,0.3662109,0.0517578,0.8193359-0.3154297,1.0126953
							c-0.3671875,0.1943359-0.8193359,0.0517578-1.0126953-0.3154297
							c-1.0576096-2.0117188-0.6152344-4.7646484,1.0517578-6.5449219
							c2.5705109-2.7429962,7.4661255-3.3192749,12.1982422,0.2617188
							c2.8414917,2.1501617,8.1172485,8.4478455,10.6416016,13.6552734
							c1.3261719,2.7363281,1.5087891,5.0332031,0.5751953,7.2294922
							C153.2740326,253.151535,152.8448486,253.3421021,152.4481354,253.1778107z"></path>
            </g>
            <g>
              <path d="M152.6043854,253.1875763c-0.3671875-0.1914063-0.5087891-0.6445313-0.3164063-1.0117188
							c6.1434479-11.7441711-4.8205719-25.359436-12.8349609-20.7373047
							c-0.3603516,0.2089844-0.8183594,0.0839844-1.0244141-0.2744141
							c-0.2070313-0.3583984-0.0839844-0.8173828,0.2744141-1.0244141
							c9.398941-5.4307098,21.7332458,9.7009583,14.9130859,22.7314453
							C153.4239197,253.2387238,152.9698486,253.3799133,152.6043854,253.1875763z"></path>
            </g>
          </g>
        </g>
        <g>
          <path d="M436.1967468,258.5513916c0.0174561-1.5627747-1.0575867-2.9925385-2.4264526-3.7471161
					c-1.3620605-0.7509918-2.9690247-0.9278717-4.5246277-0.8916168c0.840271-1.6349945,0.3979492-3.7638702-0.8597412-5.1069336
					c-1.5942383-1.7020111-4.5513916-2.4942627-7.7987366-1.0667572l0.1035461-0.1618805
					c-7.8618164-4.5384827-18.4148254,8.4251099-12.5421448,19.6473999l0.0764465-0.1194763l0.007782-0.0012207
					c-0.3045349,0.6140747,1.4657593,1.0356445,1.9858093,1.2487488c3.8057556,1.5594177,7.765625,2.8381653,11.8678589,3.3010254
					c10.0974731,1.1391602,14.7484131-4.4398804,10.8953247-8.3772278l0.0022583-0.0004272
					C434.5417175,262.0641174,436.1749878,260.5248718,436.1967468,258.5513916z" style="fill:#fef9dd"></path>
          <g>
            <g>
              <path d="M422.0028381,272.3985291c-6.0668335-0.6845398-11.2485046-3.0855408-12.4003906-3.4667969
							c-0.9511719-0.3134766-2.2529297-0.7441406-2.1533203-1.7890625c0.0872498-0.8994141,1.4195862-1.4683533,2.078125-1.9111328
							c4.2269592-2.8155823,8.9009705-3.6680298,13.3105469-4.6083984c3.3302917-0.6356201,5.9275513-0.8797607,8.9384766,0.8037109
							C438.5704041,265.2160034,434.6766968,273.8349609,422.0028381,272.3985291z M409.2079163,267.1895447
							c0.4823608,0.2129517,1.0040894,0.3506775,1.2949219,0.46875c5.9772034,2.4497375,14.822998,5.0925598,20.4970703,2.0136719
							c1.5390625-0.8349609,2.5087891-2.0458984,2.59375-3.2382813c0.1142578-1.6162109-1.3017578-3.0019531-2.5488281-3.6972656
							c-2.6572571-1.4856262-4.9578857-1.2056885-7.9257813-0.640625l0,0
							C417.9763184,263.0774536,413.5057678,264.178009,409.2079163,267.1895447z M422.9784241,261.3594666h0.0097656H422.9784241z"></path>
            </g>
            <g>
              <path d="M407.8329163,267.7481384c-0.3554688-0.2128906-0.4707031-0.6738281-0.2568359-1.0283203
							c2.4160156-4.0244141,6.3085938-7.5654297,11.5683594-10.5244141
							c3.197113-1.7997894,6.1607361-2.9364471,10.0605469-3.0322418c2.0234375-0.03125,3.6347656,0.2705078,4.9267578,0.9833984
							c1.7285156,0.953125,2.8339844,2.6855621,2.8154297,4.4131012c-0.0263672,2.3115234-1.8857422,4.0507813-3.5029297,5.3076172
							c-0.3291016,0.2539063-0.7988281,0.1943359-1.0517578-0.1318359
							c-0.2548828-0.3261719-0.1953125-0.7978516,0.1318359-1.0517578c1.4345703-1.1162109,2.9042969-2.4804688,2.9228516-4.140625
							c0.0126953-1.1826172-0.7880859-2.3925781-2.0390625-3.0820465c-1.0546875-0.5810547-2.3994141-0.8476563-4.1660156-0.7978516
							c-3.6209717,0.087677-6.3771057,1.1583252-9.3613281,2.8388824c-5.03125,2.8300781-8.7382813,6.1914063-11.0195313,9.9892578
							C408.6445313,267.8524475,408.1785278,267.9588623,407.8329163,267.7481384z"></path>
            </g>
            <g>
              <path d="M407.6483459,267.4854431c-0.8525391-2.0048828-0.6875-4.1005859,0.5214844-6.5947266
							c2.2920837-4.7306824,7.082489-10.4356079,9.640625-12.3701324c4.3052368-3.2578278,8.7676086-2.7387543,11.1230469-0.2275391
							c1.5273438,1.6308594,1.9316406,4.1542969,0.9619141,5.9990234c-0.1923828,0.3662109-0.6435547,0.5087891-1.0126953,0.3154297
							c-0.3671875-0.1933594-0.5078125-0.6464844-0.3154297-1.0126953c0.6826172-1.2978516,0.3759766-3.0966797-0.7294922-4.2763672
							c-1.813385-1.937088-5.4294739-2.3954773-9.1230469,0.3984375c-2.3847046,1.8041992-7.0187378,7.3377838-9.1953125,11.8281403
							c-1.0195313,2.1035156-1.1708984,3.7548828-0.4902344,5.3525391c0.1621094,0.3808594-0.015625,0.8222656-0.3964844,0.984375
							C408.2443848,268.0443726,407.8094788,267.8618469,407.6483459,267.4854431z"></path>
            </g>
            <g>
              <path d="M407.4842834,267.5723572c-3.3521423-6.4065552-1.8856506-14.2529144,3.4697266-19.0214996
							c3.5183411-3.1338654,7.2153015-3.2948303,10.1113281-1.6230469c0.3583984,0.2070313,0.4814453,0.6660156,0.2744141,1.0244141
							c-0.2070313,0.3574219-0.6640625,0.4824219-1.0244141,0.2744141
							c-7.1688232-4.1389465-17.0272217,8.085556-11.5029297,18.6504059
							c0.1923828,0.3671875,0.0507813,0.8203125-0.3164063,1.0117188
							C408.1304321,268.0811462,407.6764221,267.9397888,407.4842834,267.5723572z"></path>
            </g>
          </g>
        </g>
        <path d="M286.6062317,249.7473145v5.6026917c-33.6434631-67.9836426-28.5916443-57.7754059-29.8100891-60.2375336
				c-1.3822479-2.9115906,0.7556763-6.2753601,3.9808655-6.2753601c1.8102417,0,3.4729614,1.1402283,4.118988,2.8566895
				C265.9080505,194.4000397,259.4477844,177.1251526,286.6062317,249.7473145z" style="fill:#fc3d29"></path>
        <path d="M281.105011,235.0314636l-4.0270081,1.0686188l-20.2818604-40.9876099
				c-1.3822479-2.9115906,0.7556763-6.2753601,3.9808655-6.2753601c1.8102417,0,3.4729614,1.1402283,4.118988,2.8566895
				L281.105011,235.0314636z" style="fill:#010101"></path>
        <g>
          <path d="M286.3216858,222.2999725c-0.6773376,1.632431-2.7557678,2.5286713-4.4093628,1.8975525
					c1.3337097,1.510498,0.6521606,3.2144318-0.3492432,4.6828156c-1.0474243,1.5441742-2.0438232,1.7084961-3.900177,1.750351
					c-0.3955994,0.0084229-0.8331909,0-1.1108398-0.2819672c0.6269226,1.8386841-0.2187805,4.0307312-1.8470154,5.0868073
					c-1.6871643,1.0939636-3.7613831,0.891922-5.469635-0.0042114c0.7194519,3.4669037-0.9887695,6.6182556-4.4851685,7.7416077
					c-3.0293274,0.9719391-6.3068237,0.31987-9.4456329-0.2060547c-27.7036591-4.6260071-55.6191559,1.6691589-83.4054871-0.6734772
					c-2.5602264-0.2158508-5.1177979-0.5892181-7.565094-1.3961334c-5.3416138-1.7612305-9.3041077-5.600235-10.6012878-11.136322
					c-1.64151-7.0056763,2.2079926-15.8246307,5.474472-21.9260254
					c17.0877991-31.9391632,40.5647736-60.6012115,48.0529022-66.8054962
					c3.9420013-3.2713318,8.1092529-6.3264618,12.2141571-9.5550385c1.7207642-1.3547821,4.1652985-3.862381,6.475174-3.9043884
					c3.2271576-0.0589676,4.960556,2.882019,6.7866058,5.0993347c7.924118,9.6035461,11.6015472,21.9530487,7.476593,33.9118347
					c-7.1063843,20.4732666-24.8112335,42.032074-24.8112335,42.032074
					c29.183548,3.3435822,35.4509277-2.3852234,50.8130035-2.8652802c3.5174561-0.1136017,7.09375,0.2440643,10.392395,1.5315552
					c4.3041992,1.6787567,7.6490784,6.378418,9.319397,10.5563507
					C286.4942627,219.2580261,286.9065857,220.8820343,286.3216858,222.2999725z" style="fill:#ff7e5c"></path>
          <g>
            <path d="M215.4012604,209.3633575c-23.1677704-0.3498535-16.3019562-0.24617-38.9306641-0.5878906
						c-0.4140625-0.0058594-0.7441406-0.3466797-0.7382813-0.7617188c0.0058594-0.4101563,0.3408203-0.7382813,0.75-0.7382813
						c23.1677704,0.3498535,16.3019714,0.24617,38.9306641,0.5878906c0.4140625,0.0058594,0.7441406,0.3466797,0.7382813,0.7617188
						C216.145401,209.0352325,215.8104401,209.3633575,215.4012604,209.3633575z" style="fill:#010204"></path>
          </g>
          <g>
            <path d="M281.8163147,224.6660919c-3.8427734-5.2158203-9.7861328-8.7490234-15.0302734-11.8662109
						c-0.3564453-0.2119141-0.4736328-0.671875-0.2617188-1.0273438c0.2109375-0.3564453,0.6699219-0.4726563,1.0273438-0.2617188
						c5.3671875,3.1894531,11.4492188,6.8056641,15.4716797,12.2666016
						c0.2460938,0.3330078,0.1748047,0.8027344-0.1591797,1.0478516
						C282.5282593,225.0729065,282.0590515,224.997818,281.8163147,224.6660919z" style="fill:#010204"></path>
          </g>
          <g>
            <path d="M276.3836975,231.2237091c-4.6152344-4.2099609-9.8212891-7.6894531-15.4736328-10.3417969
						c-0.375-0.1757813-0.5361328-0.6220703-0.3603516-0.9970703c0.1748047-0.3759766,0.6230469-0.5380859,0.9970703-0.3603516
						c5.7890625,2.7158203,11.1210938,6.2792969,15.8486328,10.5917969
						c0.3056641,0.2792969,0.3271484,0.7529297,0.0478516,1.0595703
						C277.1689453,231.4774017,276.6940918,231.5068512,276.3836975,231.2237091z" style="fill:#010204"></path>
          </g>
          <g>
            <path d="M268.9813538,236.3291779c-3.1933594-3.1542969-7.2607422-5.3232422-11.1943359-7.4199219
						c-0.3662109-0.1953125-0.5039063-0.6494141-0.3095703-1.0146484c0.1962891-0.3671875,0.6484375-0.5048828,1.0146484-0.3095703
						c4.0292969,2.1484375,8.1943359,4.3691406,11.5439453,7.6777344c0.2939453,0.2910156,0.296875,0.765625,0.0058594,1.0605469
						C269.7525635,236.6165009,269.2780151,236.6218872,268.9813538,236.3291779z" style="fill:#010204"></path>
          </g>
        </g>
        <g>
          <polygon points="185.591 259.908 184.337 265.502 164.02 254.543 166.593 250.334" style="fill:#c52207"></polygon>
          <polygon points="185.644 258.954 181.926 265.408 203.949 277.017 207.476 270.413" style="fill:#0d0600"></polygon>
        </g>
        <g>
          <path d="M232.3096008,271.8843079c0.4156494-0.4092407,0.8143311-0.8431396,1.110733-1.345459
					c0.8513794-1.4424438,0.831604-3.5216675-0.3480377-5.2803955c1.8193359-0.8567505,2.8880157-2.9493103,2.7941742-4.9588928
					c-0.1445007-3.0962524-2.7450714-5.8051758-5.5323944-6.7474365l0.0461884-0.0261688
					c-1.8716125-4.4323883-6.1051483-5.9091644-10.345932-4.5656586c-2.3778534,0.7533264-4.348999,2.3209991-6.1726074,3.9586334
					c-1.3306427,1.1949158-2.6794891,2.4113007-3.6264496,3.92836c-1.1242523,1.8008728-1.5769958,5.5253296-1.3430634,7.9666748
					c-0.0010834,0.2947693,0.0276947,0.5890503,0.0951843,0.8780518l0.728363-0.0128784
					c3.8023682,0.2406006,3.9984131-0.0349121,6.8251953,0.8933716c7.3649902,2.3837585,9.6972046,6.578186,13.5127106,6.3982544
					C231.0821228,272.9221497,231.599823,272.5828857,232.3096008,271.8843079z" style="fill:#54dceb"></path>
          <g>
            <g>
              <path d="M216.3094635,267.2862244c-2.8949127-0.9519348-2.7823334-0.5758057-7.3574219-0.9013672
							c-0.6350403-0.0447693-0.9284973-0.8178711-0.4824219-1.2724609c1.9823151-2.0249634,6.8848724-3.6704712,9.6650391-4.1484375
							c3.8753052-0.6682739,9.0890198-0.5336304,12.4267578,1.1728516c3.9600372,2.0244751,5.1369476,6.0185852,3.5048828,8.7832031
							c-0.4846497,0.8209839-1.6187744,2.0209351-2.4521484,2.4335938
							c-0.4394531,0.2167969-0.9521484,0.3398438-1.5263672,0.3662109
							C225.8701324,273.9137268,223.6945801,269.6751709,216.3094635,267.2862244z M211.0916901,265.0098572
							c2.3926544,0.1124878,2.988678-0.0359497,5.6835938,0.8496094c7.3948517,2.3948975,9.7742767,6.5079956,13.2431641,6.3623047
							c0.3662109-0.0166016,0.6796875-0.0888672,0.9306641-0.2128906c0.5490875-0.2719116,1.4906158-1.283783,1.8261719-1.8515625
							c0.6337891-1.0751953,0.65625-2.5341797,0.0566406-3.8076172c-1.253479-2.6614075-4.2882996-3.6889038-7.203125-4.0664063l0,0
							c-2.3857422-0.3105469-4.8222656-0.2548828-7.2402344,0.1591797
							C215.7427673,262.8969727,212.5992584,264.1560364,211.0916901,265.0098572z"></path>
            </g>
            <g>
              <path d="M208.2567291,265.8623962c-0.2773438-1.1914063-0.0546875-2.5371094,0.6289063-3.7900391
							c0.6220703-1.1396484,1.5136719-2.0429688,2.3046875-2.7763672
							c5.7832031-5.3642731,12.7197266-7.8672028,18.5664063-6.6806793
							c3.0778351,0.6220551,6.6756134,3.7203827,6.8583984,7.6494293c0.1132813,2.4033203-1.2197266,4.7392578-3.2421875,5.6816406
							c-0.3759766,0.1757813-0.8222656,0.0117188-0.9960938-0.3632813c-0.1748047-0.375-0.0126953-0.8212891,0.3632813-0.9960938
							c1.484375-0.6923828,2.4619141-2.4404297,2.3769531-4.2519531c-0.1457367-3.118927-3.1808777-5.749588-5.6572266-6.2490387
							c-5.3769531-1.0878906-11.8193359,1.2734375-17.25,6.3095856c-1.4832611,1.3778992-2.9537048,3.1486816-2.4921875,5.1269531
							c0.09375,0.4033203-0.1572266,0.8066406-0.5605469,0.9003906
							C208.764389,266.5177307,208.3527527,266.2730713,208.2567291,265.8623962z"></path>
            </g>
            <g>
              <path d="M208.2694244,265.7774353c-0.4882813-2.546875-0.0126953-7.1767578,1.3300781-9.3271484
							c1.0087891-1.6162262,2.4072266-2.8730621,3.7607422-4.0888824c1.8525391-1.6640625,3.9160156-3.3134766,6.4472656-4.1162109
							c4.5295105-1.4343414,9.208725,0.1217346,11.2636719,4.9882813c0.1601563,0.3818359-0.0185547,0.8222656-0.3994141,0.9833984
							c-0.3818359,0.1611328-0.8222656-0.0175781-0.9833984-0.3994141c-1.7555084-4.169693-5.6806641-5.3282318-9.4277344-4.1425781
							c-2.2597656,0.7167969-4.1699219,2.2509766-5.8984375,3.8017578c-1.2753906,1.1464844-2.59375,2.3320313-3.4912109,3.7685699
							c-1.1162109,1.7880859-1.5537109,6.03125-1.1289063,8.2509766c0.078125,0.40625-0.1884766,0.7998047-0.5957031,0.8769531
							C208.7590942,266.4537964,208.3490753,266.1961365,208.2694244,265.7774353z"></path>
            </g>
          </g>
        </g>
        <path d="M411.9591064 157.4455566c-.1518555.4556122-3.1892395 14.7312775-3.1892395 14.7312775l-10.7826843 3.0373688 11.5420227 3.037384 4.8598022 14.7312775 1.5186768-13.6681976c0 0 11.2383118-3.9485931 11.0864258-4.1004639-.1518555-.1518555-10.9345398-3.6448517-10.9345398-3.6448517L411.9591064 157.4455566zM453.6683655 191.4838867c-.1005554.3017426-2.1121826 9.7563477-2.1121826 9.7563477l-7.1412354 2.0116119 7.6441345 2.0116272 3.2185974 9.7563324 1.0057983-9.0522766c0 0 7.4429932-2.615097 7.3424072-2.715683s-7.2418213-2.4139404-7.2418213-2.4139404L453.6683655 191.4838867z" style="fill:#fff"></path>
        <g>
          <path d="M327.3861389,147.7487488c-3.6856995,6.4499054-5.743103,9.6391602-14.4566345,8.2928162
					c0,0-9.2311707-19.2068329-20.422821-19.4888c-11.187561-0.2860718-7.06427-7.2198944-6.7529297-10.8046188
					l2.8651733-17.8562622l-14.0485229-5.9493484c0,0,2.0364075,6.9717255-8.465271,14.338913
					c0,0,2.4276733,10.7373428-5.4865112,15.8324738c-7.9141693,5.0910187-15.2813568-2.0405426-15.2813568-2.0405426
					s-2.89888,2.9030762-5.8777618,3.1387177c0,0-10.7470398-6.3916245-20.1505585-1.6078491
					c0,0-6.8063965-9.9920273,5.576004-19.3956528c0,0-5.1750336-10.1103363,3.6015778-15.2812729
					c8.7809296-5.1751404,13.6363068-0.8625412,21.0034027-7.602829
					c7.3673096-6.7402954,15.2813721-18.8870621,28.1350708-23.5110092
					c12.8536682-4.6239471,26.0986023,1.0181656,36.204834,6.1890945
					c10.1104431,5.175148,11.7555237,13.7961426,10.5816345,19.9852448
					c-1.1737976,6.193306-2.9914246,7.4386826-3.9802246,7.7668762c0,0-2.8947449,11.057106,1.0813599,15.559021
					c3.9801941,4.5019226,10.6910095,8.6756439,3.2270508,20.9361267
					C324.7396545,136.2498474,331.0718384,141.2987518,327.3861389,147.7487488z"></path>
          <path d="M318.4032593,99.8640976c-2.8633728,4.8704224-3.9417419,4.8088226-8.5662537,12.8663177
					c-3.3487854,5.827919-7.2000122,15.7946243-14.4693604,16.198555
					c-6.235321,0.3449402-12.8494873-4.7249146-15.9376526-9.7948761
					c-4.1680298-6.8367462-5.4677429-18.3080673-6.3069153-18.9249649c-0.1220398-0.0925446-0.2819824-0.1093903-0.4375916-0.130455
					c-1.6745605-0.2103653-3.2607422-1.0602722-4.37146-2.3351364c-2.7391357-3.1513519-2.1669006-9.096489,1.6786499-11.1791382
					c1.9270325-1.0434341,5.3603516-0.7026062,6.4079895,1.4221573c0.6647034,1.3505707,1.4725952,2.7769394,1.842804,4.2326889
					c19.3372803,0.4165344,26.1616821-9.2016678,26.1616821-9.2016678
					c-0.1092834,0.9045486-0.0377808,1.9564056,0.1346741,2.8484268c0.6268921,3.2439041,1.4599609,6.6561661,3.8077393,8.9744568
					C310.5971069,97.0581741,315.3661499,99.0203705,318.4032593,99.8640976z" style="fill:#ff7e5c"></path>
          <g>
            <path d="M294.0487366,113.3565216c-0.3330078-0.2460938-0.4033203-0.7158203-0.15625-1.0488281
						c0.2441406-0.3310547,0.7128906-0.4042969,1.0488281-0.15625c0.4716797,0.3486328,0.9589844,0.7089844,1.4677734,0.9208984
						c1.0195618,0.423645,1.7935791,0.1489716,2.3369141-0.8242188c0.7358093-1.3141785,1.1748962-4.859108,4.5751953-10.7744141
						c0.2070313-0.3583984,0.6640625-0.4804688,1.0244141-0.2763672c0.359375,0.2070313,0.4824219,0.6650391,0.2763672,1.0244141
						c-3.4459839,5.9930191-3.6759033,9.1657104-4.5673828,10.7587891
						C298.9950867,114.8769913,297.0531616,115.5801315,294.0487366,113.3565216z"></path>
          </g>
          <g>
            <path d="M295.0204163,120.0557404c-3.0947266-0.6533203-5.8212891-2.8505859-7.1162109-5.7353516
						c-0.1689453-0.3779297,0-0.8212891,0.3779297-0.9912109c0.3740234-0.1650391,0.8212891-0.0019531,0.9912109,0.3779297
						c1.1015625,2.4541016,3.4228516,4.3251953,6.0576172,4.8818359c0.4052734,0.0849609,0.6640625,0.4833984,0.578125,0.8886719
						C295.8216248,119.8929977,295.4101868,120.1423569,295.0204163,120.0557404z"></path>
          </g>
          <g>
            <path d="M312.1961975,105.6162872c-1.5136719-1.3066406-3.2236328-2.3398438-5.0820313-3.0703125
						c-0.3857422-0.1523438-0.5751953-0.5869141-0.4238281-0.9726563c0.1523438-0.3867188,0.5908203-0.5742188,0.9726563-0.4238281
						c2.0166016,0.7939453,3.8710938,1.9140625,5.5136719,3.3320313c0.3134766,0.2705078,0.3486328,0.7441406,0.0771484,1.0576172
						C312.9852295,105.8521652,312.5085144,105.8876877,312.1961975,105.6162872z"></path>
          </g>
          <g>
            <path d="M300.6073303,99.2949982c-1.5903015-1.7739716-4.190033-2.4591599-6.4003906-3.3779297
						c-0.3828125-0.1591797-0.5634766-0.5976563-0.4042969-0.9804688s0.6015625-0.5615234,0.9804688-0.4042969
						c2.3114014,0.9618912,5.0767517,1.6818771,6.9414063,3.7626953c0.2763672,0.3076172,0.25,0.7822266-0.0585938,1.0585938
						C301.3582153,99.6296768,300.8840027,99.6044617,300.6073303,99.2949982z"></path>
          </g>
          <ellipse cx="306.636" cy="108.333" rx="2.089" ry="1.093" transform="rotate(-60 306.636 108.333)"></ellipse>
          <ellipse cx="294.915" cy="102.447" rx="2.089" ry="1.093" transform="rotate(-60 294.915 102.447)"></ellipse>
        </g>
      </g>
    </g>
  </g>
</svg>
